# xmcd
#
# Track frame offsets: 
#        150
#        19485
#        37622
#        55327
#        73225
#        109315
#        126002
#        141827
#        159530
#        176460
#        196932
#        205145
#        220047
#        235640
#        249762
#        276072
#
# Disc length: 3838 seconds
#
# Revision: 3
# Processed by: cddbd v1.5.2PL0 Copyright (c) Steve Scherf et al.
# Submitted via: ExactAudioCopy v0.90b4
#
DISCID=de0efc10
DTITLE=Janis Joplin - Best
DYEAR=1900
DGENRE=Rock
TTITLE0=Janis Joplin - Piece Of My Heart
TTITLE1=Summertime
TTITLE2=Try (Just A Little Bit Harder)
TTITLE3=Cry Baby
TTITLE4=Ball And Chain
TTITLE5=Move Over
TTITLE6=A Woman Left Lonely
TTITLE7=Half Moon
TTITLE8=My Baby
TTITLE9=Me And Bobby McGee
TTITLE10=Mercedes Benz
TTITLE11=Trust Me
TTITLE12=Get It While You Can
TTITLE13=Down On Me
TTITLE14=Combination Of The Two
TTITLE15=Bye Bye Baby
EXTD=
EXTT0=
EXTT1=
EXTT2=
EXTT3=
EXTT4=
EXTT5=
EXTT6=
EXTT7=
EXTT8=
EXTT9=
EXTT10=
EXTT11=
EXTT12=
EXTT13=
EXTT14=
EXTT15=
PLAYORDER=
